PathFileType	4	(X/Y/Z)	7_coords_data.trc
DataRate	CameraRate	NumFrames	NumMarkers	Units	OrigDataRate	OrigDataStartFrame	OrigNumFrames
30.0	30.0	8	21	m	30.0	11	62
Frame#	Time	THUMB_TIP	THUMB_IP	THUMB_MCP	THUMB_CMC	INDEX_TIP	INDEX_DIP	INDEX_PIP	INDEX_MCP	MIDDLE_TIP	MIDDLE_DIP	MIDDLE_PIP	MIDDLE_MCP	RING_TIP	RING_DIP	RING_PIP	RING_MCP	PINKY_TIP	PINKY_DIP	PINKY_PIP	PINKY_MCP	WRIST
X1	Y1	Z1	X2	Y2	Z2	X3	Y3	Z3	X4	Y4	Z4	X5	Y5	Z5	X6	Y6	Z6	X7	Y7	Z7	X8	Y8	Z8	X9	Y9	Z9	X10	Y10	Z10	X11	Y11	Z11	X12	Y12	Z12	X13	Y13	Z13	X14	Y14	Z14	X15	Y15	Z15	X16	Y16	Z16	X17	Y17	Z17	X18	Y18	Z18	X19	Y19	Z19	X20	Y20	Z20	X21	Y21	Z21
10	0.3333333333333333	-0.04797079849243164	-0.061728099822998046	0.9847030029296875	-0.03812620162963867	-0.04051890182495117	0.9988930053710937	-0.03645220184326172	-0.025113800048828124	1.0233699951171875	-0.03671310043334961	0.005471489906311035	1.04393994140625	-0.027370800018310548	-7.149899750947901e-05	1.0127000122070313	-0.011135999679565429	0.004911970138549804	1.00377001953125	-0.008969639778137207	0.007721419811248779	0.9811220092773437	-0.046188301086425784	0.000388695001602172	0.9862000122070312	-0.023934600830078125	0.015276800155639649	1.021719970703125	-0.012902899742126465	0.021902099609375	1.0142999877929688	-0.007659560203552246	0.0294414005279541	0.9892329711914063	-0.047617599487304686	0.024831300735473634	0.983947998046875	-0.032274700164794924	0.02833799934387207	1.03	-0.01812779998779297	0.037132198333740235	1.0226900024414063	-0.012329500198364257	0.04768450164794922	1.0016599731445313	-0.04979940032958984	0.04525500106811523	0.9928989868164062	-0.03496929931640625	0.04220209884643555	1.0353399658203124	-0.021822999954223633	0.05032289886474609	1.0297099609375	-0.019918600082397462	0.05996129989624024	1.01477001953125	-0.04956689834594727	0.0605890998840332	1.0062999877929688	-0.058508098602294924	0.02892009925842285	1.0589100341796875
11	0.36666666666666664	-0.04783240127563477	-0.061699600219726564	0.9847520141601562	-0.03803450012207031	-0.04049850082397461	0.9989400024414062	-0.03651210021972656	-0.02508559989929199	1.02347998046875	-0.03685490036010742	0.005478219985961914	1.0440699462890626	-0.02771339988708496	2.67394003458e-07	1.0131599731445313	-0.011398699760437012	0.004900869846343994	1.00425	-0.009140040397644043	0.00772160005569458	0.9812420043945312	-0.046368301391601564	0.00043265199661254806	0.9862550048828125	-0.024139400482177734	0.015329899787902833	1.021780029296875	-0.013141400337219238	0.0219153995513916	1.0143599853515626	-0.007781740188598633	0.02934469985961914	0.9897119750976563	-0.04772380065917969	0.024887699127197266	0.9839030151367187	-0.03248040008544922	0.02842300033569336	1.02997998046875	-0.018341899871826172	0.037165199279785156	1.02272998046875	-0.012522700309753419	0.047693599700927736	1.0016500244140625	-0.04996860122680664	0.04526290130615234	0.9929409790039062	-0.03555289840698242	0.042220500946044924	1.035489990234375	-0.021983699798583986	0.05038449859619141	1.02968994140625	-0.020177999496459962	0.06000550079345703	1.0148200073242188	-0.0498401985168457	0.0605885009765625	1.0063699951171876	-0.05879719924926758	0.028900699615478517	1.0592099609375
12	0.4	-0.048215198516845706	-0.061750099182128905	0.9850460205078125	-0.03836159896850586	-0.04056539916992188	0.9992340087890625	-0.036780799865722656	-0.025102199554443358	1.02372998046875	-0.03709420013427735	0.005491340160369873	1.04422998046875	-0.027858400344848634	3.0330199748277e-05	1.01347998046875	-0.011512599945068359	0.004864419937133789	1.0040700073242188	-0.00927694034576416	0.007644410133361816	0.981447021484375	-0.04653810119628906	0.000415656000375747	0.9864990234375	-0.024234699249267577	0.015335399627685547	1.0218400268554688	-0.01328629970550537	0.021881399154663087	1.014510009765625	-0.008012410163879394	0.02938319969177246	0.9896640014648438	-0.04793320083618164	0.02489340019226074	0.9841069946289063	-0.03233990097045898	0.028582799911499025	1.0302900390625	-0.018450599670410156	0.03724190139770508	1.0225700073242188	-0.012685999870300294	0.047695301055908204	1.002030029296875	-0.05011660003662109	0.04527080154418945	0.9931489868164063	-0.03572600173950195	0.04207979965209961	1.035969970703125	-0.022078699111938476	0.05038579940795898	1.0299200439453124	-0.020285800933837892	0.060012401580810545	1.015	-0.04990620040893555	0.06063309860229492	1.006530029296875	-0.05894419860839844	0.028984399795532228	1.059489990234375
13	0.43333333333333335	-0.04836399841308594	-0.06181380081176758	0.9852039794921875	-0.038499099731445316	-0.0405973014831543	0.99935400390625	-0.03693030166625977	-0.02512190055847168	1.0238300170898438	-0.03718069839477539	0.005505149841308594	1.04431005859375	-0.027806100845336915	2.0407300442457e-05	1.0133900146484376	-0.011591600418090821	0.004836649894714356	1.0043699951171876	-0.009451629638671875	0.007612070083618164	0.9814710083007813	-0.04673910140991211	0.00043622601032257	0.9865900268554687	-0.024361799240112305	0.015296699523925782	1.02177001953125	-0.013371299743652344	0.02184440040588379	1.014530029296875	-0.008130780220031738	0.029353200912475588	0.9897960205078125	-0.04804750061035156	0.02489229965209961	0.9842210083007813	-0.032386199951171875	0.02860569953918457	1.0303199462890624	-0.01854599952697754	0.03724810028076172	1.0223599853515626	-0.012774100303649902	0.04764360046386719	1.00202001953125	-0.05024150085449219	0.045263198852539065	0.9932169799804688	-0.03594850158691406	0.04212400054931641	1.036050048828125	-0.022215200424194337	0.05039630126953125	1.03002001953125	-0.020428499221801757	0.05999050140380859	1.014989990234375	-0.04996630096435547	0.06061830139160156	1.0065800170898438	-0.058991798400878905	0.029063100814819335	1.0595999755859375
14	0.4666666666666667	-0.04831179809570312	-0.06173479843139648	0.9850490112304687	-0.03853689956665039	-0.04050510025024414	0.9992730102539062	-0.03700189971923828	-0.025089399337768555	1.0237899780273438	-0.03727450180053711	0.005517930030822754	1.0443699951171874	-0.027737899780273436	0.00010409600287675801	1.013719970703125	-0.011600899696350097	0.004833459854125977	1.004260009765625	-0.009582429885864259	0.007573190212249756	0.9813400268554687	-0.04685469818115234	0.0004880979955196381	0.9865679931640625	-0.024366100311279296	0.015324899673461914	1.0218800048828125	-0.013422100067138672	0.021829200744628907	1.0144400024414062	-0.00813558006286621	0.029331300735473635	0.9897890014648437	-0.04809930038452148	0.024933799743652344	0.984239013671875	-0.032646900177001954	0.028422199249267577	1.03027001953125	-0.0185314998626709	0.03714130020141602	1.0228300170898437	-0.012729599952697753	0.04761320114135742	1.0021599731445312	-0.05028279876708985	0.04527939987182617	0.9932659912109375	-0.03584640121459961	0.04201649856567383	1.03602001953125	-0.022193899154663087	0.05035070037841797	1.0299300537109375	-0.02041469955444336	0.05997010040283203	1.0148699951171876	-0.05007569885253906	0.06063420104980469	1.0066699829101562	-0.0591692008972168	0.02895509910583496	1.0596199951171874
15	0.5	-0.04823749923706055	-0.06162810134887695	0.9849849853515625	-0.038494098663330076	-0.04042929840087891	0.99927099609375	-0.03699319839477539	-0.02504990005493164	1.0238599853515624	-0.03729449844360352	0.005497340202331543	1.04443994140625	-0.02793000030517578	5.9008099138736007e-05	1.013739990234375	-0.011708499908447266	0.00475724983215332	1.0044099731445313	-0.00960990047454834	0.007515620231628418	0.9814400024414063	-0.04696260070800781	0.000489773988723754	0.98664697265625	-0.024448299407958986	0.015214200019836427	1.0217999877929687	-0.01343239974975586	0.021757400512695313	1.0145700073242188	-0.008156060218811035	0.029256799697875976	0.9900029907226563	-0.048204898834228516	0.024919300079345702	0.9844210205078125	-0.03237749862670898	0.028484100341796874	1.0304100341796876	-0.0185851993560791	0.037160400390625	1.0224400024414062	-0.012787699699401855	0.04756010055541992	1.0024299926757811	-0.050303298950195315	0.045288501739501955	0.9933770141601562	-0.03590700149536133	0.04236190032958984	1.0358399658203126	-0.02221489906311035	0.050317001342773435	1.029949951171875	-0.020464899063110352	0.05995989990234375	1.0150700073242187	-0.0500625	0.06062200164794922	1.00675	-0.05906669998168945	0.02891390037536621	1.059510009765625
16	0.5333333333333333	-0.04826020050048828	-0.061535900115966796	0.9850640258789063	-0.038492000579833985	-0.040398399353027345	0.9993489990234375	-0.03699959945678711	-0.02505109977722168	1.023969970703125	-0.0372958984375	0.005487949848175049	1.04456005859375	-0.027790700912475586	6.930170208215701e-05	1.0137100219726562	-0.01163700008392334	0.004791450023651123	1.004219970703125	-0.009644630432128907	0.007495590209960937	0.9815230102539062	-0.04696920013427734	0.000533896028995513	0.9868179931640625	-0.0246742000579834	0.015166999816894532	1.0221799926757813	-0.013405400276184082	0.021758100509643555	1.0145700073242188	-0.008123649597167968	0.029213399887084962	0.990052001953125	-0.048154598236083986	0.025005199432373046	0.9844819946289063	-0.03275469970703125	0.028458400726318358	1.030489990234375	-0.018589599609375	0.03706719970703125	1.0230800170898438	-0.012838199615478515	0.04760160064697266	1.0023300170898437	-0.050310001373291016	0.04534379959106445	0.9935479736328126	-0.03537459945678711	0.04216559982299805	1.0361199951171876	-0.02221820068359375	0.05034320068359375	1.03025	-0.02044219970703125	0.06001340103149414	1.01527001953125	-0.04999900054931641	0.06071789932250977	1.0069299926757813	-0.059070598602294924	0.029009300231933592	1.0599599609375
17	0.5666666666666667	-0.0482041015625	-0.06131470108032227	0.9850650024414063	-0.03847919845581055	-0.04022040176391602	0.9994310302734375	-0.03703689956665039	-0.02487899971008301	1.0240799560546876	-0.037331298828125	0.00565654993057251	1.0446800537109375	-0.027857799530029297	0.000281899988651275	1.0137000122070312	-0.011609800338745117	0.004980780124664306	1.0043499755859375	-0.009756660461425782	0.007665760040283203	0.9815009765625	-0.047059600830078124	0.000759612023830413	0.9869089965820312	-0.024380199432373045	0.015444299697875977	1.0221099853515625	-0.0133818998336792	0.02196570014953613	1.0148499755859375	-0.008249110221862792	0.029508899688720704	0.9899810180664063	-0.048203201293945314	0.025209999084472655	0.9845709838867187	-0.03261130142211914	0.02865609931945801	1.0308699951171876	-0.01863039970397949	0.037315399169921874	1.0228499755859375	-0.012888500213623047	0.047719501495361326	1.0026799926757812	-0.05039899826049805	0.04555059814453125	0.9936849975585937	-0.0359385986328125	0.04229750061035156	1.0366099853515625	-0.02221579933166504	0.0505432014465332	1.03052001953125	-0.0204375	0.06019580078125	1.0153900146484376	-0.05012070083618164	0.060871498107910156	1.0071699829101564	-0.059110000610351564	0.02929680061340332	1.0600400390625
